# File produced by Open Asset Import Library (http://www.assimp.sf.net)
# (assimp v5.0.2255862537)

mtllib uploads_files_83547_gem2_full.mtl

# 9 vertex positions
v  0 51.2953 0
v  -44.450001 -25.692101 0
v  -26.67 -15.4153 8.8900003
v  0 30.777201 8.8900003
v  44.450001 -25.692101 0
v  26.67 -15.4153 8.8900003
v  26.67 -15.4153 -8.8900003
v  -26.67 -15.4153 -8.8900003
v  0 30.777201 -8.8900003

# 0 UV coordinates

# 8 vertex normals
vn -0.567132 0.327443 0.75573897
vn 0 -0.65423298 0.756293
vn 0 -0.65423298 -0.756293
vn -0.567132 0.327443 -0.75573897
vn 0.567132 0.327443 -0.75573897
vn 0.567132 0.327443 0.75573897
vn 0 0 1
vn 0 0 -1

# Mesh 'OpenSCAD_Model' with 14 faces
g OpenSCAD_Model
usemtl DefaultMaterial
f  1//1 2//1 3//1
f  4//1 1//1 3//1
f  3//2 2//2 5//2
f  6//2 3//2 5//2
f  7//3 5//3 8//3
f  8//3 5//3 2//3
f  9//4 8//4 1//4
f  1//4 8//4 2//4
f  5//5 7//5 1//5
f  1//5 7//5 9//5
f  1//6 4//6 6//6
f  5//6 1//6 6//6
f  6//7 4//7 3//7
f  7//8 8//8 9//8

